<svg xmlns="http://www.w3.org/2000/svg" width="760" height="374" viewBox="0 0 760 374">
<rect width="100%" height="100%" fill="white"/>
<text x="20" y="32" font-family="Arial" font-size="22" font-weight="700">Coverage metrics</text>
<text x="20" y="78" font-family="Arial" font-size="14">Gap mean score</text>
<rect x="220" y="56" width="500.0" height="32" rx="5" fill="#4f46e5"/>
<text x="728.0" y="78" font-family="Arial" font-size="14">2.00</text>
<text x="20" y="126" font-family="Arial" font-size="14">Benefit baseline</text>
<rect x="220" y="104" width="0.0" height="32" rx="5" fill="#4f46e5"/>
<text x="228.0" y="126" font-family="Arial" font-size="14">0.00</text>
<text x="20" y="174" font-family="Arial" font-size="14">Benefit SSL</text>
<rect x="220" y="152" width="250.0" height="32" rx="5" fill="#4f46e5"/>
<text x="478.0" y="174" font-family="Arial" font-size="14">1.00</text>
<text x="20" y="222" font-family="Arial" font-size="14">Model baseline</text>
<rect x="220" y="200" width="0.0" height="32" rx="5" fill="#4f46e5"/>
<text x="228.0" y="222" font-family="Arial" font-size="14">0.00</text>
<text x="20" y="270" font-family="Arial" font-size="14">Model SSL</text>
<rect x="220" y="248" width="229.2" height="32" rx="5" fill="#4f46e5"/>
<text x="457.16666666666663" y="270" font-family="Arial" font-size="14">0.92</text>
<text x="20" y="318" font-family="Arial" font-size="14">Blind SSL</text>
<rect x="220" y="296" width="200.0" height="32" rx="5" fill="#4f46e5"/>
<text x="428.0" y="318" font-family="Arial" font-size="14">0.80</text>
</svg>
